<svg width="20" height="22" viewBox="0 0 20 22" fill="none" xmlns="http://www.w3.org/2000/svg">
<path d="M2.41667 21.75C1.82083 21.75 1.31076 21.5378 0.886458 21.1135C0.462153 20.6892 0.25 20.1792 0.25 19.5833V4.41666C0.25 3.82083 0.462153 3.31076 0.886458 2.88645C1.31076 2.46215 1.82083 2.24999 2.41667 2.24999H6.96667C7.21945 1.59999 7.61667 1.07638 8.15833 0.679162C8.7 0.281939 9.31389 0.0833282 10 0.0833282C10.6861 0.0833282 11.3 0.281939 11.8417 0.679162C12.3833 1.07638 12.7806 1.59999 13.0333 2.24999H17.5833C18.1792 2.24999 18.6892 2.46215 19.1135 2.88645C19.5378 3.31076 19.75 3.82083 19.75 4.41666V19.5833C19.75 20.1792 19.5378 20.6892 19.1135 21.1135C18.6892 21.5378 18.1792 21.75 17.5833 21.75H2.41667ZM10 3.60416C10.2347 3.60416 10.4288 3.52743 10.5823 3.37395C10.7358 3.22048 10.8125 3.02638 10.8125 2.79166C10.8125 2.55694 10.7358 2.36284 10.5823 2.20937C10.4288 2.0559 10.2347 1.97916 10 1.97916C9.76528 1.97916 9.57118 2.0559 9.41771 2.20937C9.26424 2.36284 9.1875 2.55694 9.1875 2.79166C9.1875 3.02638 9.26424 3.22048 9.41771 3.37395C9.57118 3.52743 9.76528 3.60416 10 3.60416ZM2.41667 18.3375C3.39167 17.3806 4.52465 16.6267 5.81563 16.076C7.1066 15.5253 8.50139 15.25 10 15.25C11.4986 15.25 12.8934 15.5253 14.1844 16.076C15.4753 16.6267 16.6083 17.3806 17.5833 18.3375V4.41666H2.41667V18.3375ZM10 13.0833C11.0472 13.0833 11.941 12.7132 12.6813 11.9729C13.4215 11.2326 13.7917 10.3389 13.7917 9.29166C13.7917 8.24444 13.4215 7.35069 12.6813 6.61041C11.941 5.87013 11.0472 5.49999 10 5.49999C8.95278 5.49999 8.05903 5.87013 7.31875 6.61041C6.57847 7.35069 6.20833 8.24444 6.20833 9.29166C6.20833 10.3389 6.57847 11.2326 7.31875 11.9729C8.05903 12.7132 8.95278 13.0833 10 13.0833ZM4.58333 19.5833H15.4167V19.3125C14.6583 18.6805 13.8188 18.2066 12.8979 17.8906C11.9771 17.5746 11.0111 17.4167 10 17.4167C8.98889 17.4167 8.02292 17.5746 7.10208 17.8906C6.18125 18.2066 5.34167 18.6805 4.58333 19.3125V19.5833ZM10 10.9167C9.54861 10.9167 9.16493 10.7587 8.84896 10.4427C8.53299 10.1267 8.375 9.74305 8.375 9.29166C8.375 8.84027 8.53299 8.45659 8.84896 8.14062C9.16493 7.82465 9.54861 7.66666 10 7.66666C10.4514 7.66666 10.8351 7.82465 11.151 8.14062C11.467 8.45659 11.625 8.84027 11.625 9.29166C11.625 9.74305 11.467 10.1267 11.151 10.4427C10.8351 10.7587 10.4514 10.9167 10 10.9167Z" fill="#FF4436"/>
</svg>
