<svg width="16" height="14" viewBox="0 0 16 14" fill="none" xmlns="http://www.w3.org/2000/svg">
<path d="M1.33333 13C1.33327 11.9735 1.62942 10.9689 2.18623 10.1066C2.74303 9.24426 3.53684 8.56095 4.47239 8.13865C5.40794 7.71634 6.44549 7.57297 7.4605 7.72576C8.47552 7.87854 9.42488 8.32097 10.1947 8.99997M10.6667 11.6667L12 13L14.6667 10.3333M9.99999 4.33333C9.99999 6.17428 8.50761 7.66667 6.66666 7.66667C4.82571 7.66667 3.33333 6.17428 3.33333 4.33333C3.33333 2.49238 4.82571 1 6.66666 1C8.50761 1 9.99999 2.49238 9.99999 4.33333Z" stroke="black" stroke-width="1.40278" stroke-linecap="round" stroke-linejoin="round"/>
</svg>
