<svg width="8" height="12" viewBox="0 0 8 12" fill="none" xmlns="http://www.w3.org/2000/svg">
<path d="M4 5.61875C4.675 5.61875 5.37917 5.54149 6.1125 5.38698C6.84583 5.23246 7.475 5.02878 8 4.77594V10.3947C7.5 10.6475 6.89167 10.8512 6.175 11.0057C5.45833 11.1602 4.73333 11.2375 4 11.2375C3.26667 11.2375 2.54167 11.1602 1.825 11.0057C1.10833 10.8512 0.5 10.6475 0 10.3947V4.77594C0.525 5.02878 1.15417 5.23246 1.8875 5.38698C2.62083 5.54149 3.325 5.61875 4 5.61875ZM7 9.55188V6.32109C6.58333 6.4522 6.10208 6.55521 5.55625 6.63013C5.01042 6.70504 4.49167 6.7425 4 6.7425C3.50833 6.7425 2.98958 6.70504 2.44375 6.63013C1.89792 6.55521 1.41667 6.4522 1 6.32109V9.55188C1.41667 9.72044 1.89583 9.85622 2.4375 9.95923C2.97917 10.0622 3.5 10.1137 4 10.1137C4.5 10.1137 5.02083 10.0622 5.5625 9.95923C6.10417 9.85622 6.58333 9.72044 7 9.55188ZM4 0C4.55 0 5.02083 0.220068 5.4125 0.660203C5.80417 1.10034 6 1.62944 6 2.2475C6 2.86556 5.80417 3.39466 5.4125 3.8348C5.02083 4.27493 4.55 4.495 4 4.495C3.45 4.495 2.97917 4.27493 2.5875 3.8348C2.19583 3.39466 2 2.86556 2 2.2475C2 1.62944 2.19583 1.10034 2.5875 0.660203C2.97917 0.220068 3.45 0 4 0ZM4 3.37125C4.275 3.37125 4.51042 3.26122 4.70625 3.04115C4.90208 2.82108 5 2.55653 5 2.2475C5 1.93847 4.90208 1.67392 4.70625 1.45385C4.51042 1.23378 4.275 1.12375 4 1.12375C3.725 1.12375 3.48958 1.23378 3.29375 1.45385C3.09792 1.67392 3 1.93847 3 2.2475C3 2.55653 3.09792 2.82108 3.29375 3.04115C3.48958 3.26122 3.725 3.37125 4 3.37125Z" fill="#0C55F3"/>
</svg>
