<svg width="22" height="22" viewBox="0 0 22 22" fill="none" xmlns="http://www.w3.org/2000/svg">
<path d="M0.5 16.9999V19.9999C0.5 20.5999 0.9 20.9999 1.5 20.9999H5.5V17.9999H8.5V14.9999H10.5L11.9 13.5999C13.2898 14.0841 14.8028 14.0822 16.1915 13.5947C17.5801 13.1071 18.7622 12.1628 19.5444 10.916C20.3265 9.66933 20.6624 8.19409 20.4971 6.73165C20.3318 5.26922 19.6751 3.90617 18.6344 2.86549C17.5937 1.8248 16.2307 1.1681 14.7683 1.00281C13.3058 0.837511 11.8306 1.17341 10.5839 1.95556C9.33716 2.7377 8.39279 3.91979 7.90525 5.30844C7.41771 6.69708 7.41585 8.21008 7.9 9.59992L0.5 16.9999Z" stroke="#1E5799" stroke-linecap="round" stroke-linejoin="round"/>
<path d="M15 7C15.2761 7 15.5 6.77614 15.5 6.5C15.5 6.22386 15.2761 6 15 6C14.7239 6 14.5 6.22386 14.5 6.5C14.5 6.77614 14.7239 7 15 7Z" stroke="#1E5799" stroke-linecap="round" stroke-linejoin="round"/>
</svg>
