<svg width="17" height="17" viewBox="0 0 17 17" fill="none" xmlns="http://www.w3.org/2000/svg">
<path d="M1.20837 13.375V15.5625C1.20837 16 1.50004 16.2916 1.93754 16.2916H4.85421V14.1041H7.04171V11.9166H8.50004L9.52087 10.8958C10.5343 11.2488 11.6375 11.2475 12.6501 10.892C13.6626 10.5365 14.5246 9.84788 15.0949 8.93882C15.6652 8.02976 15.9101 6.95406 15.7896 5.8877C15.6691 4.82134 15.1902 3.82745 14.4314 3.06862C13.6726 2.30979 12.6787 1.83094 11.6123 1.71041C10.546 1.58989 9.47026 1.83481 8.5612 2.40513C7.65214 2.97544 6.96354 3.83738 6.60804 4.84994C6.25253 5.86249 6.25119 6.96572 6.60421 7.97914L1.20837 13.375Z" stroke="black" stroke-width="1.4" stroke-linecap="round" stroke-linejoin="round"/>
<path d="M11.7813 6.08337C11.9826 6.08337 12.1459 5.92014 12.1459 5.71879C12.1459 5.51743 11.9826 5.3542 11.7813 5.3542C11.5799 5.3542 11.4167 5.51743 11.4167 5.71879C11.4167 5.92014 11.5799 6.08337 11.7813 6.08337Z" stroke="black" stroke-width="1.4" stroke-linecap="round" stroke-linejoin="round"/>
</svg>
