<svg width="17" height="17" viewBox="0 0 17 17" fill="none" xmlns="http://www.w3.org/2000/svg">
<path d="M1.20831 13.3749V15.5624C1.20831 15.9999 1.49998 16.2915 1.93748 16.2915H4.85415V14.104H7.04165V11.9165H8.49998L9.52081 10.8957C10.5342 11.2487 11.6375 11.2474 12.65 10.8919C13.6626 10.5364 14.5245 9.84775 15.0948 8.93869C15.6651 8.02963 15.9101 6.95394 15.7895 5.88758C15.669 4.82122 15.1902 3.82733 14.4313 3.0685C13.6725 2.30967 12.6786 1.83082 11.6123 1.71029C10.5459 1.58977 9.4702 1.83469 8.56114 2.40501C7.65208 2.97532 6.96347 3.83726 6.60797 4.84981C6.25247 5.86237 6.25112 6.9656 6.60415 7.97902L1.20831 13.3749Z" stroke="black" stroke-width="1.4" stroke-linecap="round" stroke-linejoin="round"/>
<path d="M11.7812 6.08325C11.9826 6.08325 12.1458 5.92002 12.1458 5.71866C12.1458 5.51731 11.9826 5.35408 11.7812 5.35408C11.5799 5.35408 11.4166 5.51731 11.4166 5.71866C11.4166 5.92002 11.5799 6.08325 11.7812 6.08325Z" stroke="black" stroke-width="1.4" stroke-linecap="round" stroke-linejoin="round"/>
</svg>
