<svg width="131" height="41" viewBox="0 0 131 41" fill="none" xmlns="http://www.w3.org/2000/svg">
<mask id="path-1-inside-1_2763_6722" fill="white">
<path d="M47.057 25.5296C47.6775 25.5296 48.2278 25.4267 48.7078 25.2211C49.1878 25.0051 49.5624 24.7069 49.8317 24.3265C50.1127 23.9357 50.259 23.4781 50.2707 22.9537H55.0298C55.0181 24.126 54.661 25.1697 53.9586 26.0848C53.2561 26.9897 52.3137 27.7044 51.1312 28.2288C49.9488 28.7429 48.6258 29 47.1624 29C45.6872 29 44.3994 28.7841 43.2989 28.3522C42.2101 27.9203 41.3028 27.3239 40.5769 26.563C39.851 25.7918 39.3066 24.8972 38.9437 23.8792C38.5808 22.8509 38.3993 21.7506 38.3993 20.5784V20.1311C38.3993 18.9486 38.5808 17.8483 38.9437 16.8303C39.3066 15.8021 39.851 14.9075 40.5769 14.1465C41.3028 13.3753 42.2101 12.7738 43.2989 12.3419C44.3877 11.91 45.6638 11.6941 47.1273 11.6941C48.6844 11.6941 50.0483 11.9563 51.219 12.4807C52.4015 13.0051 53.3264 13.7558 53.9937 14.7326C54.6728 15.6992 55.0181 16.8458 55.0298 18.1722H50.2707C50.259 17.617 50.1244 17.1131 49.8668 16.6607C49.621 16.2082 49.258 15.8483 48.778 15.581C48.3097 15.3033 47.7302 15.1645 47.0394 15.1645C46.3019 15.1645 45.6989 15.3033 45.2306 15.581C44.7623 15.8483 44.3994 16.2185 44.1418 16.6915C43.8843 17.1542 43.7028 17.6838 43.5974 18.2802C43.5038 18.8663 43.4569 19.4833 43.4569 20.1311V20.5784C43.4569 21.2262 43.5038 21.8483 43.5974 22.4447C43.6911 23.0411 43.8667 23.5707 44.1243 24.0334C44.3935 24.4961 44.7623 24.8612 45.2306 25.1285C45.6989 25.3959 46.3077 25.5296 47.057 25.5296Z"/>
<path d="M63.3012 5V28.6915H58.226V5H63.3012Z"/>
<path d="M76.2263 29C74.7512 29 73.4282 28.7943 72.2575 28.383C71.0867 27.9614 70.0916 27.3805 69.272 26.6401C68.4642 25.8997 67.8437 25.0411 67.4105 24.0643C66.9774 23.0771 66.7608 22.0283 66.7608 20.9177V20.3008C66.7608 19.036 66.9657 17.8792 67.3754 16.8303C67.7852 15.7815 68.3706 14.8715 69.1316 14.1003C69.9042 13.329 70.8409 12.7378 71.9414 12.3265C73.0419 11.9049 74.2829 11.6941 75.6644 11.6941C77.0107 11.6941 78.2049 11.8895 79.2469 12.2802C80.2888 12.671 81.161 13.2262 81.8635 13.946C82.5776 14.6658 83.1162 15.5296 83.4791 16.5373C83.8421 17.5347 84.0235 18.6452 84.0235 19.8689V21.7198H68.9208V18.7584H79.0537V18.419C79.0537 17.8021 78.9249 17.2519 78.6673 16.7686C78.4215 16.2751 78.0468 15.8843 77.5434 15.5964C77.04 15.3085 76.3961 15.1645 75.6117 15.1645C74.9443 15.1645 74.3707 15.2931 73.8907 15.5501C73.4107 15.8072 73.0185 16.1671 72.7141 16.6298C72.4214 17.0925 72.1989 17.6375 72.0467 18.2648C71.9062 18.8817 71.836 19.5604 71.836 20.3008V20.9177C71.836 21.5861 71.9414 22.2031 72.1521 22.7686C72.3745 23.3342 72.6848 23.8226 73.0828 24.2339C73.4926 24.6452 73.9843 24.964 74.558 25.1902C75.1434 25.4165 75.8048 25.5296 76.5424 25.5296C77.4556 25.5296 78.3044 25.3753 79.0888 25.0668C79.8849 24.7481 80.5698 24.2699 81.1435 23.6324L83.6021 25.9769C83.204 26.4807 82.6596 26.964 81.9689 27.4267C81.2898 27.8895 80.4703 28.2699 79.5103 28.5681C78.5503 28.856 77.4556 29 76.2263 29Z"/>
<path d="M97.1769 24.0797C97.1769 23.7609 97.0716 23.473 96.8608 23.2159C96.6501 22.9589 96.2579 22.7224 95.6842 22.5064C95.1223 22.2802 94.3086 22.0746 93.2432 21.8895C92.2832 21.7044 91.3876 21.473 90.5563 21.1954C89.7368 20.9075 89.0226 20.563 88.4139 20.162C87.8168 19.7609 87.3485 19.2879 87.0089 18.7429C86.6694 18.1877 86.4997 17.5553 86.4997 16.8458C86.4997 16.1465 86.6694 15.4884 87.0089 14.8715C87.3602 14.2545 87.8577 13.7095 88.5017 13.2365C89.1573 12.7532 89.9534 12.3779 90.89 12.1105C91.8383 11.8329 92.9037 11.6941 94.0861 11.6941C95.7369 11.6941 97.1535 11.9254 98.336 12.3882C99.5301 12.8509 100.443 13.4884 101.076 14.3008C101.719 15.1028 102.041 16.018 102.041 17.0463H96.9838C96.9838 16.6144 96.8784 16.2288 96.6677 15.8895C96.4686 15.5398 96.1525 15.2674 95.7193 15.072C95.2979 14.8663 94.7476 14.7635 94.0686 14.7635C93.5066 14.7635 93.0208 14.8509 92.611 15.0257C92.2012 15.1902 91.8851 15.4165 91.6627 15.7044C91.452 15.982 91.3466 16.2905 91.3466 16.6298C91.3466 16.8869 91.4051 17.1183 91.5222 17.3239C91.651 17.5193 91.8559 17.6992 92.1368 17.8638C92.4178 18.0283 92.7808 18.1825 93.2256 18.3265C93.6822 18.4602 94.2442 18.5835 94.9115 18.6967C96.2813 18.9434 97.5047 19.2674 98.5818 19.6684C99.6589 20.0591 100.514 20.5938 101.146 21.2725C101.778 21.9409 102.094 22.8201 102.094 23.91C102.094 24.6504 101.907 25.329 101.532 25.946C101.157 26.563 100.619 27.1028 99.9165 27.5656C99.214 28.018 98.3711 28.3728 97.3877 28.6298C96.4159 28.8766 95.3213 29 94.1037 29C92.3359 29 90.8373 28.7224 89.608 28.1671C88.3904 27.6118 87.4655 26.9075 86.8333 26.054C86.2128 25.1902 85.9026 24.3059 85.9026 23.401H90.6968C90.7202 24.0077 90.8958 24.4961 91.2237 24.8663C91.5632 25.2365 91.9905 25.5039 92.5056 25.6684C93.0325 25.8329 93.6003 25.9152 94.2091 25.9152C94.8647 25.9152 95.4091 25.838 95.8423 25.6838C96.2755 25.5193 96.6033 25.3033 96.8257 25.036C97.0599 24.7584 97.1769 24.4396 97.1769 24.0797Z"/>
<path d="M110.717 12.0026V28.6915H105.641V12.0026H110.717ZM105.325 7.65296C105.325 7.00514 105.583 6.47044 106.098 6.04884C106.613 5.62725 107.304 5.41645 108.17 5.41645C109.025 5.41645 109.71 5.62725 110.225 6.04884C110.752 6.47044 111.015 7.00514 111.015 7.65296C111.015 8.30077 110.752 8.83548 110.225 9.25707C109.71 9.67866 109.025 9.88946 108.17 9.88946C107.304 9.88946 106.613 9.67866 106.098 9.25707C105.583 8.83548 105.325 8.30077 105.325 7.65296Z"/>
<path d="M125.152 24.928V17.4936C125.152 16.9589 125.053 16.5013 124.854 16.1208C124.655 15.7301 124.344 15.4267 123.923 15.2108C123.513 14.9949 122.98 14.8869 122.325 14.8869C121.763 14.8869 121.277 14.9743 120.867 15.1491C120.457 15.3136 120.141 15.5553 119.919 15.874C119.696 16.1825 119.585 16.5476 119.585 16.9692H114.527C114.527 16.2596 114.715 15.5861 115.089 14.9486C115.464 14.3111 116.008 13.7506 116.723 13.2674C117.437 12.7738 118.286 12.3882 119.269 12.1105C120.264 11.8329 121.376 11.6941 122.606 11.6941C124.081 11.6941 125.392 11.91 126.539 12.3419C127.687 12.7738 128.588 13.4216 129.244 14.2853C129.911 15.1491 130.245 16.2288 130.245 17.5244V24.6658C130.245 25.581 130.309 26.3316 130.438 26.9177C130.567 27.4936 130.754 27.9974 131 28.4293V28.6915H125.89C125.644 28.2391 125.456 27.6735 125.328 26.9949C125.211 26.3059 125.152 25.617 125.152 24.928ZM125.819 18.527L125.855 21.0411H123.027C122.36 21.0411 121.78 21.108 121.289 21.2416C120.797 21.3753 120.393 21.5656 120.077 21.8123C119.761 22.0488 119.527 22.3265 119.374 22.6452C119.234 22.964 119.164 23.3136 119.164 23.6941C119.164 24.0746 119.263 24.419 119.462 24.7275C119.661 25.0257 119.948 25.2622 120.323 25.437C120.697 25.6015 121.136 25.6838 121.64 25.6838C122.401 25.6838 123.062 25.5501 123.624 25.2828C124.186 25.0154 124.619 24.6864 124.924 24.2956C125.24 23.9049 125.404 23.5347 125.415 23.1851L126.75 25.0668C126.563 25.4884 126.305 25.9254 125.977 26.3779C125.661 26.8303 125.257 27.2571 124.766 27.6581C124.274 28.0488 123.683 28.3728 122.992 28.6298C122.301 28.8766 121.482 29 120.533 29C119.328 29 118.233 28.7892 117.249 28.3676C116.278 27.9357 115.505 27.3445 114.931 26.5938C114.369 25.8329 114.088 24.9692 114.088 24.0026C114.088 23.1285 114.276 22.3522 114.65 21.6735C115.025 20.9949 115.575 20.4242 116.301 19.9614C117.039 19.4884 117.958 19.1337 119.058 18.8972C120.159 18.6504 121.435 18.527 122.887 18.527H125.819Z"/>
</mask>
<path d="M47.057 25.5296C47.6775 25.5296 48.2278 25.4267 48.7078 25.2211C49.1878 25.0051 49.5624 24.7069 49.8317 24.3265C50.1127 23.9357 50.259 23.4781 50.2707 22.9537H55.0298C55.0181 24.126 54.661 25.1697 53.9586 26.0848C53.2561 26.9897 52.3137 27.7044 51.1312 28.2288C49.9488 28.7429 48.6258 29 47.1624 29C45.6872 29 44.3994 28.7841 43.2989 28.3522C42.2101 27.9203 41.3028 27.3239 40.5769 26.563C39.851 25.7918 39.3066 24.8972 38.9437 23.8792C38.5808 22.8509 38.3993 21.7506 38.3993 20.5784V20.1311C38.3993 18.9486 38.5808 17.8483 38.9437 16.8303C39.3066 15.8021 39.851 14.9075 40.5769 14.1465C41.3028 13.3753 42.2101 12.7738 43.2989 12.3419C44.3877 11.91 45.6638 11.6941 47.1273 11.6941C48.6844 11.6941 50.0483 11.9563 51.219 12.4807C52.4015 13.0051 53.3264 13.7558 53.9937 14.7326C54.6728 15.6992 55.0181 16.8458 55.0298 18.1722H50.2707C50.259 17.617 50.1244 17.1131 49.8668 16.6607C49.621 16.2082 49.258 15.8483 48.778 15.581C48.3097 15.3033 47.7302 15.1645 47.0394 15.1645C46.3019 15.1645 45.6989 15.3033 45.2306 15.581C44.7623 15.8483 44.3994 16.2185 44.1418 16.6915C43.8843 17.1542 43.7028 17.6838 43.5974 18.2802C43.5038 18.8663 43.4569 19.4833 43.4569 20.1311V20.5784C43.4569 21.2262 43.5038 21.8483 43.5974 22.4447C43.6911 23.0411 43.8667 23.5707 44.1243 24.0334C44.3935 24.4961 44.7623 24.8612 45.2306 25.1285C45.6989 25.3959 46.3077 25.5296 47.057 25.5296Z" stroke="url(#paint0_linear_2763_6722)" stroke-width="14" mask="url(#path-1-inside-1_2763_6722)"/>
<path d="M63.3012 5V28.6915H58.226V5H63.3012Z" stroke="url(#paint1_linear_2763_6722)" stroke-width="14" mask="url(#path-1-inside-1_2763_6722)"/>
<path d="M76.2263 29C74.7512 29 73.4282 28.7943 72.2575 28.383C71.0867 27.9614 70.0916 27.3805 69.272 26.6401C68.4642 25.8997 67.8437 25.0411 67.4105 24.0643C66.9774 23.0771 66.7608 22.0283 66.7608 20.9177V20.3008C66.7608 19.036 66.9657 17.8792 67.3754 16.8303C67.7852 15.7815 68.3706 14.8715 69.1316 14.1003C69.9042 13.329 70.8409 12.7378 71.9414 12.3265C73.0419 11.9049 74.2829 11.6941 75.6644 11.6941C77.0107 11.6941 78.2049 11.8895 79.2469 12.2802C80.2888 12.671 81.161 13.2262 81.8635 13.946C82.5776 14.6658 83.1162 15.5296 83.4791 16.5373C83.8421 17.5347 84.0235 18.6452 84.0235 19.8689V21.7198H68.9208V18.7584H79.0537V18.419C79.0537 17.8021 78.9249 17.2519 78.6673 16.7686C78.4215 16.2751 78.0468 15.8843 77.5434 15.5964C77.04 15.3085 76.3961 15.1645 75.6117 15.1645C74.9443 15.1645 74.3707 15.2931 73.8907 15.5501C73.4107 15.8072 73.0185 16.1671 72.7141 16.6298C72.4214 17.0925 72.1989 17.6375 72.0467 18.2648C71.9062 18.8817 71.836 19.5604 71.836 20.3008V20.9177C71.836 21.5861 71.9414 22.2031 72.1521 22.7686C72.3745 23.3342 72.6848 23.8226 73.0828 24.2339C73.4926 24.6452 73.9843 24.964 74.558 25.1902C75.1434 25.4165 75.8048 25.5296 76.5424 25.5296C77.4556 25.5296 78.3044 25.3753 79.0888 25.0668C79.8849 24.7481 80.5698 24.2699 81.1435 23.6324L83.6021 25.9769C83.204 26.4807 82.6596 26.964 81.9689 27.4267C81.2898 27.8895 80.4703 28.2699 79.5103 28.5681C78.5503 28.856 77.4556 29 76.2263 29Z" stroke="url(#paint2_linear_2763_6722)" stroke-width="14" mask="url(#path-1-inside-1_2763_6722)"/>
<path d="M97.1769 24.0797C97.1769 23.7609 97.0716 23.473 96.8608 23.2159C96.6501 22.9589 96.2579 22.7224 95.6842 22.5064C95.1223 22.2802 94.3086 22.0746 93.2432 21.8895C92.2832 21.7044 91.3876 21.473 90.5563 21.1954C89.7368 20.9075 89.0226 20.563 88.4139 20.162C87.8168 19.7609 87.3485 19.2879 87.0089 18.7429C86.6694 18.1877 86.4997 17.5553 86.4997 16.8458C86.4997 16.1465 86.6694 15.4884 87.0089 14.8715C87.3602 14.2545 87.8577 13.7095 88.5017 13.2365C89.1573 12.7532 89.9534 12.3779 90.89 12.1105C91.8383 11.8329 92.9037 11.6941 94.0861 11.6941C95.7369 11.6941 97.1535 11.9254 98.336 12.3882C99.5301 12.8509 100.443 13.4884 101.076 14.3008C101.719 15.1028 102.041 16.018 102.041 17.0463H96.9838C96.9838 16.6144 96.8784 16.2288 96.6677 15.8895C96.4686 15.5398 96.1525 15.2674 95.7193 15.072C95.2979 14.8663 94.7476 14.7635 94.0686 14.7635C93.5066 14.7635 93.0208 14.8509 92.611 15.0257C92.2012 15.1902 91.8851 15.4165 91.6627 15.7044C91.452 15.982 91.3466 16.2905 91.3466 16.6298C91.3466 16.8869 91.4051 17.1183 91.5222 17.3239C91.651 17.5193 91.8559 17.6992 92.1368 17.8638C92.4178 18.0283 92.7808 18.1825 93.2256 18.3265C93.6822 18.4602 94.2442 18.5835 94.9115 18.6967C96.2813 18.9434 97.5047 19.2674 98.5818 19.6684C99.6589 20.0591 100.514 20.5938 101.146 21.2725C101.778 21.9409 102.094 22.8201 102.094 23.91C102.094 24.6504 101.907 25.329 101.532 25.946C101.157 26.563 100.619 27.1028 99.9165 27.5656C99.214 28.018 98.3711 28.3728 97.3877 28.6298C96.4159 28.8766 95.3213 29 94.1037 29C92.3359 29 90.8373 28.7224 89.608 28.1671C88.3904 27.6118 87.4655 26.9075 86.8333 26.054C86.2128 25.1902 85.9026 24.3059 85.9026 23.401H90.6968C90.7202 24.0077 90.8958 24.4961 91.2237 24.8663C91.5632 25.2365 91.9905 25.5039 92.5056 25.6684C93.0325 25.8329 93.6003 25.9152 94.2091 25.9152C94.8647 25.9152 95.4091 25.838 95.8423 25.6838C96.2755 25.5193 96.6033 25.3033 96.8257 25.036C97.0599 24.7584 97.1769 24.4396 97.1769 24.0797Z" stroke="url(#paint3_linear_2763_6722)" stroke-width="14" mask="url(#path-1-inside-1_2763_6722)"/>
<path d="M110.717 12.0026V28.6915H105.641V12.0026H110.717ZM105.325 7.65296C105.325 7.00514 105.583 6.47044 106.098 6.04884C106.613 5.62725 107.304 5.41645 108.17 5.41645C109.025 5.41645 109.71 5.62725 110.225 6.04884C110.752 6.47044 111.015 7.00514 111.015 7.65296C111.015 8.30077 110.752 8.83548 110.225 9.25707C109.71 9.67866 109.025 9.88946 108.17 9.88946C107.304 9.88946 106.613 9.67866 106.098 9.25707C105.583 8.83548 105.325 8.30077 105.325 7.65296Z" stroke="url(#paint4_linear_2763_6722)" stroke-width="14" mask="url(#path-1-inside-1_2763_6722)"/>
<path d="M125.152 24.928V17.4936C125.152 16.9589 125.053 16.5013 124.854 16.1208C124.655 15.7301 124.344 15.4267 123.923 15.2108C123.513 14.9949 122.98 14.8869 122.325 14.8869C121.763 14.8869 121.277 14.9743 120.867 15.1491C120.457 15.3136 120.141 15.5553 119.919 15.874C119.696 16.1825 119.585 16.5476 119.585 16.9692H114.527C114.527 16.2596 114.715 15.5861 115.089 14.9486C115.464 14.3111 116.008 13.7506 116.723 13.2674C117.437 12.7738 118.286 12.3882 119.269 12.1105C120.264 11.8329 121.376 11.6941 122.606 11.6941C124.081 11.6941 125.392 11.91 126.539 12.3419C127.687 12.7738 128.588 13.4216 129.244 14.2853C129.911 15.1491 130.245 16.2288 130.245 17.5244V24.6658C130.245 25.581 130.309 26.3316 130.438 26.9177C130.567 27.4936 130.754 27.9974 131 28.4293V28.6915H125.89C125.644 28.2391 125.456 27.6735 125.328 26.9949C125.211 26.3059 125.152 25.617 125.152 24.928ZM125.819 18.527L125.855 21.0411H123.027C122.36 21.0411 121.78 21.108 121.289 21.2416C120.797 21.3753 120.393 21.5656 120.077 21.8123C119.761 22.0488 119.527 22.3265 119.374 22.6452C119.234 22.964 119.164 23.3136 119.164 23.6941C119.164 24.0746 119.263 24.419 119.462 24.7275C119.661 25.0257 119.948 25.2622 120.323 25.437C120.697 25.6015 121.136 25.6838 121.64 25.6838C122.401 25.6838 123.062 25.5501 123.624 25.2828C124.186 25.0154 124.619 24.6864 124.924 24.2956C125.24 23.9049 125.404 23.5347 125.415 23.1851L126.75 25.0668C126.563 25.4884 126.305 25.9254 125.977 26.3779C125.661 26.8303 125.257 27.2571 124.766 27.6581C124.274 28.0488 123.683 28.3728 122.992 28.6298C122.301 28.8766 121.482 29 120.533 29C119.328 29 118.233 28.7892 117.249 28.3676C116.278 27.9357 115.505 27.3445 114.931 26.5938C114.369 25.8329 114.088 24.9692 114.088 24.0026C114.088 23.1285 114.276 22.3522 114.65 21.6735C115.025 20.9949 115.575 20.4242 116.301 19.9614C117.039 19.4884 117.958 19.1337 119.058 18.8972C120.159 18.6504 121.435 18.527 122.887 18.527H125.819Z" stroke="url(#paint5_linear_2763_6722)" stroke-width="14" mask="url(#path-1-inside-1_2763_6722)"/>
<path d="M11.1372 20.5918C12.3102 20.5918 13.4832 20.5918 13.4832 20.5918H15.8291M20.5211 12.949C19.4344 12.5626 18.2466 12.3499 17.0021 12.3499C11.8195 12.3499 7.61823 16.0399 7.61823 20.5918C7.61823 25.1437 11.8195 28.8337 17.0021 28.8337C18.2466 28.8337 19.4344 28.621 20.5211 28.2346M35.7699 26.0435C34.0505 27.7545 31.5347 28.8337 28.732 28.8337C26.5128 28.8337 24.4736 28.1571 22.8671 27.026C20.7218 25.5156 19.3481 23.1946 19.3481 20.5918C19.3481 17.989 20.7218 15.668 22.8671 14.1575C24.4736 13.0264 26.5128 12.3499 28.732 12.3499C31.5347 12.3499 34.0505 13.429 35.7699 15.1401" stroke="white" stroke-linecap="round"/>
<defs>
<linearGradient id="paint0_linear_2763_6722" x1="38.3993" y1="5.63158" x2="112.746" y2="54.6563" gradientUnits="userSpaceOnUse">
<stop stop-color="#5CFFFF"/>
<stop offset="1" stop-color="#3391FF"/>
</linearGradient>
<linearGradient id="paint1_linear_2763_6722" x1="38.3993" y1="5.63158" x2="112.746" y2="54.6563" gradientUnits="userSpaceOnUse">
<stop stop-color="#5CFFFF"/>
<stop offset="1" stop-color="#3391FF"/>
</linearGradient>
<linearGradient id="paint2_linear_2763_6722" x1="38.3993" y1="5.63158" x2="112.746" y2="54.6563" gradientUnits="userSpaceOnUse">
<stop stop-color="#5CFFFF"/>
<stop offset="1" stop-color="#3391FF"/>
</linearGradient>
<linearGradient id="paint3_linear_2763_6722" x1="38.3993" y1="5.63158" x2="112.746" y2="54.6563" gradientUnits="userSpaceOnUse">
<stop stop-color="#5CFFFF"/>
<stop offset="1" stop-color="#3391FF"/>
</linearGradient>
<linearGradient id="paint4_linear_2763_6722" x1="38.3993" y1="5.63158" x2="112.746" y2="54.6563" gradientUnits="userSpaceOnUse">
<stop stop-color="#5CFFFF"/>
<stop offset="1" stop-color="#3391FF"/>
</linearGradient>
<linearGradient id="paint5_linear_2763_6722" x1="38.3993" y1="5.63158" x2="112.746" y2="54.6563" gradientUnits="userSpaceOnUse">
<stop stop-color="#5CFFFF"/>
<stop offset="1" stop-color="#3391FF"/>
</linearGradient>
</defs>
</svg>
