<svg width="40" height="53" viewBox="0 0 40 53" fill="none" xmlns="http://www.w3.org/2000/svg">
<path d="M33.3263 26.4743C33.3263 27.4118 32.6318 28.1462 31.8447 28.1462H30.3631L30.3955 36.4899C30.3955 36.6305 30.3862 36.7712 30.3723 36.9118V37.7503C30.3723 38.9014 29.5436 39.8337 28.5203 39.8337H27.7795C27.7286 39.8337 27.6777 39.8337 27.6267 39.8284C27.5619 39.8337 27.4971 39.8337 27.4323 39.8337H25.9275H24.8163C23.7931 39.8337 22.9643 38.9014 22.9643 37.7503V36.5003V33.167C22.9643 32.2451 22.3022 31.5003 21.4827 31.5003H18.5195C17.7 31.5003 17.0379 32.2451 17.0379 33.167V36.5003V37.7503C17.0379 38.9014 16.2091 39.8337 15.1859 39.8337H14.0747H12.5977C12.5282 39.8337 12.4588 39.8284 12.3893 39.8232C12.3338 39.8284 12.2782 39.8337 12.2227 39.8337H11.4819C10.4586 39.8337 9.62984 38.9014 9.62984 37.7503V31.917C9.62984 31.8701 9.62984 31.818 9.63447 31.7712V28.1462H8.14823C7.31483 28.1462 6.66663 27.417 6.66663 26.4743C6.66663 26.0055 6.80553 25.5889 7.12963 25.2243L19.001 13.5837C19.3251 13.2191 19.6955 13.167 20.0196 13.167C20.3437 13.167 20.7141 13.2712 20.9919 13.5316L32.817 25.2243C33.1874 25.5889 33.3726 26.0055 33.3263 26.4743Z" fill="#081B28"/>
</svg>
