<svg width="26" height="25" viewBox="0 0 26 25" fill="none" xmlns="http://www.w3.org/2000/svg">
<g clip-path="url(#clip0_5904_3581)">
<path opacity="0.4" d="M3.01038 23.4375C4.30432 23.4375 5.35413 22.3877 5.35413 21.0938V4.6875C5.35413 2.96387 6.75549 1.5625 8.47913 1.5625H22.5416C24.2653 1.5625 25.6666 2.96387 25.6666 4.6875V20.3125C25.6666 22.0361 24.2653 23.4375 22.5416 23.4375H5.35413H3.01038ZM8.47913 5.85938V9.76562C8.47913 10.415 9.00159 10.9375 9.651 10.9375H15.1198C15.7692 10.9375 16.2916 10.415 16.2916 9.76562V5.85938C16.2916 5.20996 15.7692 4.6875 15.1198 4.6875H9.651C9.00159 4.6875 8.47913 5.20996 8.47913 5.85938ZM8.47913 14.8438C8.47913 15.2734 8.83069 15.625 9.26038 15.625H21.7604C22.1901 15.625 22.5416 15.2734 22.5416 14.8438C22.5416 14.4141 22.1901 14.0625 21.7604 14.0625H9.26038C8.83069 14.0625 8.47913 14.4141 8.47913 14.8438ZM8.47913 19.5312C8.47913 19.9609 8.83069 20.3125 9.26038 20.3125H21.7604C22.1901 20.3125 22.5416 19.9609 22.5416 19.5312C22.5416 19.1016 22.1901 18.75 21.7604 18.75H9.26038C8.83069 18.75 8.47913 19.1016 8.47913 19.5312ZM18.6354 5.46875C18.6354 5.89844 18.9869 6.25 19.4166 6.25H21.7604C22.1901 6.25 22.5416 5.89844 22.5416 5.46875C22.5416 5.03906 22.1901 4.6875 21.7604 4.6875H19.4166C18.9869 4.6875 18.6354 5.03906 18.6354 5.46875ZM18.6354 10.1562C18.6354 10.5859 18.9869 10.9375 19.4166 10.9375H21.7604C22.1901 10.9375 22.5416 10.5859 22.5416 10.1562C22.5416 9.72656 22.1901 9.375 21.7604 9.375H19.4166C18.9869 9.375 18.6354 9.72656 18.6354 10.1562Z" fill="#081B28"/>
<path d="M0.666626 7.8125V21.0938C0.666626 22.3877 1.71643 23.4375 3.01038 23.4375C4.30432 23.4375 5.35413 22.3877 5.35413 21.0938V4.6875H3.79163C2.06799 4.6875 0.666626 6.08887 0.666626 7.8125ZM19.4166 4.6875C18.9869 4.6875 18.6354 5.03906 18.6354 5.46875C18.6354 5.89844 18.9869 6.25 19.4166 6.25H21.7604C22.1901 6.25 22.5416 5.89844 22.5416 5.46875C22.5416 5.03906 22.1901 4.6875 21.7604 4.6875H19.4166ZM19.4166 9.375C18.9869 9.375 18.6354 9.72656 18.6354 10.1562C18.6354 10.5859 18.9869 10.9375 19.4166 10.9375H21.7604C22.1901 10.9375 22.5416 10.5859 22.5416 10.1562C22.5416 9.72656 22.1901 9.375 21.7604 9.375H19.4166ZM9.26038 14.0625C8.83069 14.0625 8.47913 14.4141 8.47913 14.8438C8.47913 15.2734 8.83069 15.625 9.26038 15.625H21.7604C22.1901 15.625 22.5416 15.2734 22.5416 14.8438C22.5416 14.4141 22.1901 14.0625 21.7604 14.0625H9.26038ZM9.26038 18.75C8.83069 18.75 8.47913 19.1016 8.47913 19.5312C8.47913 19.9609 8.83069 20.3125 9.26038 20.3125H21.7604C22.1901 20.3125 22.5416 19.9609 22.5416 19.5312C22.5416 19.1016 22.1901 18.75 21.7604 18.75H9.26038Z" fill="#081B28"/>
</g>
<defs>
<clipPath id="clip0_5904_3581">
<rect width="25" height="25" fill="white" transform="translate(0.666626)"/>
</clipPath>
</defs>
</svg>
