<svg width="41" height="53" viewBox="0 0 41 53" fill="none" xmlns="http://www.w3.org/2000/svg">
<path opacity="0.3" d="M33.0416 36.4054L28.8128 32.4033C28.0088 33.4385 27.0451 34.3391 25.958 35.0713L30.3069 39.2068C30.4898 39.4204 30.7159 39.5927 30.9703 39.7125C31.2247 39.8322 31.5016 39.8966 31.7827 39.9014C32.0638 39.9063 32.3428 39.8514 32.6011 39.7404C32.8595 39.6295 33.0913 39.465 33.2814 39.2578C33.4715 39.0506 33.6155 38.8054 33.7038 38.5385C33.7921 38.2716 33.8228 37.9889 33.7939 37.7093C33.7649 37.4296 33.6769 37.1592 33.5357 36.9161C33.3946 36.6729 33.2034 36.4625 32.9749 36.2986L33.0416 36.4054Z" fill="#081B28"/>
<path d="M19.221 13.167C16.8464 13.167 14.5251 13.8711 12.5507 15.1904C10.5763 16.5096 9.03748 18.3847 8.12876 20.5786C7.22005 22.7724 6.98228 25.1864 7.44554 27.5154C7.9088 29.8444 9.05228 31.9836 10.7314 33.6627C12.4104 35.3418 14.5497 36.4853 16.8787 36.9486C19.2077 37.4118 21.6217 37.1741 23.8155 36.2653C26.0094 35.3566 27.8845 33.8178 29.2037 31.8434C30.523 29.869 31.2271 27.5477 31.2271 25.1731C31.2271 21.9889 29.9622 18.9351 27.7106 16.6835C25.459 14.4319 22.4052 13.167 19.221 13.167ZM19.221 33.6575C17.5461 33.6574 15.9089 33.161 14.5161 32.2308C13.1234 31.3005 12.0376 29.9783 11.3961 28.4312C10.7545 26.8841 10.586 25.1816 10.9118 23.5388C11.2376 21.8959 12.043 20.3865 13.2264 19.2013C14.4097 18.0161 15.9179 17.2082 17.5602 16.8799C19.2025 16.5515 20.9053 16.7174 22.4535 17.3565C24.0016 17.9956 25.3255 19.0792 26.2579 20.4705C27.1903 21.8618 27.6893 23.4983 27.692 25.1731C27.6955 26.2872 27.4789 27.3909 27.0546 28.421C26.6303 29.4511 26.0067 30.3872 25.2195 31.1756C24.4324 31.9639 23.4973 32.589 22.4679 33.0149C21.4384 33.4409 20.335 33.6592 19.221 33.6575Z" fill="#081B28"/>
</svg>

