<svg width="22" height="21" viewBox="0 0 22 21" fill="none" xmlns="http://www.w3.org/2000/svg">
<path d="M1 19C0.999916 17.4603 1.44413 15.9533 2.27935 14.6598C3.11456 13.3664 4.30527 12.3414 5.7086 11.708C7.11193 11.0745 8.66824 10.8595 10.1908 11.0886C11.7133 11.3178 13.1373 11.9815 14.292 13M18 14V20M21 17H15M14 6C14 8.76142 11.7614 11 9 11C6.23858 11 4 8.76142 4 6C4 3.23858 6.23858 1 9 1C11.7614 1 14 3.23858 14 6Z" stroke="url(#paint0_linear_3082_4182)" stroke-width="2" stroke-linecap="round" stroke-linejoin="round"/>
<defs>
<linearGradient id="paint0_linear_3082_4182" x1="1" y1="1.5" x2="23.3173" y2="5.51484" gradientUnits="userSpaceOnUse">
<stop stop-color="#5CFFFF"/>
<stop offset="1" stop-color="#3391FF"/>
</linearGradient>
</defs>
</svg>
